<?xml version="1.0" encoding="UTF-8" standalone="no"?>
<!-- Created with Inkscape (http://www.inkscape.org/) -->
<svg
   xmlns:dc="http://purl.org/dc/elements/1.1/"
   xmlns:cc="http://creativecommons.org/ns#"
   xmlns:rdf="http://www.w3.org/1999/02/22-rdf-syntax-ns#"
   xmlns:svg="http://www.w3.org/2000/svg"
   xmlns="http://www.w3.org/2000/svg"
   xmlns:xlink="http://www.w3.org/1999/xlink"
   xmlns:sodipodi="http://sodipodi.sourceforge.net/DTD/sodipodi-0.dtd"
   xmlns:inkscape="http://www.inkscape.org/namespaces/inkscape"
   width="328.30188"
   height="80"
   id="svg2542"
   sodipodi:version="0.32"
   inkscape:version="0.46"
   version="1.0"
   sodipodi:docname="CalloutBubble.svg"
   inkscape:output_extension="org.inkscape.output.svg.inkscape"
   inkscape:export-filename="/Users/millenomi/Developer/Multiverse/Mover/CalloutBubble.png"
   inkscape:export-xdpi="90"
   inkscape:export-ydpi="90">
  <defs
     id="defs2544">
    <filter
       inkscape:collect="always"
       id="filter4541">
      <feGaussianBlur
         inkscape:collect="always"
         stdDeviation="2.616933"
         id="feGaussianBlur4543" />
    </filter>
    <linearGradient
       inkscape:collect="always"
       id="linearGradient4561">
      <stop
         style="stop-color:#408dea;stop-opacity:1"
         offset="0"
         id="stop4563" />
      <stop
         style="stop-color:#2a62da;stop-opacity:1"
         offset="1"
         id="stop4565" />
    </linearGradient>
    <linearGradient
       inkscape:collect="always"
       xlink:href="#linearGradient4561"
       id="linearGradient4801"
       gradientUnits="userSpaceOnUse"
       x1="6"
       y1="511.70312"
       x2="6"
       y2="562.25"
       gradientTransform="translate(213.75,27.963748)" />
    <inkscape:perspective
       sodipodi:type="inkscape:persp3d"
       inkscape:vp_x="0 : 526.18109 : 1"
       inkscape:vp_y="0 : 1000 : 0"
       inkscape:vp_z="744.09448 : 526.18109 : 1"
       inkscape:persp3d-origin="372.04724 : 350.78739 : 1"
       id="perspective2550" />
    <linearGradient
       inkscape:collect="always"
       xlink:href="#linearGradient4561"
       id="linearGradient2469"
       gradientUnits="userSpaceOnUse"
       gradientTransform="translate(573.75,-56.036252)"
       x1="-38.75"
       y1="422.64844"
       x2="-38.75"
       y2="455.19531" />
    <linearGradient
       inkscape:collect="always"
       xlink:href="#linearGradient4561"
       id="linearGradient2478"
       gradientUnits="userSpaceOnUse"
       gradientTransform="translate(573.75,-56.036252)"
       x1="-38.75"
       y1="422.64844"
       x2="-38.75"
       y2="455.19531" />
  </defs>
  <sodipodi:namedview
     id="base"
     pagecolor="#ffffff"
     bordercolor="#666666"
     borderopacity="1.0"
     inkscape:pageopacity="0.0"
     inkscape:pageshadow="2"
     inkscape:zoom="1"
     inkscape:cx="263.40397"
     inkscape:cy="40"
     inkscape:document-units="px"
     inkscape:current-layer="layer1"
     showgrid="false"
     inkscape:window-width="619"
     inkscape:window-height="701"
     inkscape:window-x="20"
     inkscape:window-y="42" />
  <metadata
     id="metadata2547">
    <rdf:RDF>
      <cc:Work
         rdf:about="">
        <dc:format>image/svg+xml</dc:format>
        <dc:type
           rdf:resource="http://purl.org/dc/dcmitype/StillImage" />
      </cc:Work>
    </rdf:RDF>
  </metadata>
  <g
     inkscape:label="Livello 1"
     inkscape:groupmode="layer"
     id="layer1"
     transform="translate(-215.84906,-446.36218)">
    <rect
       style="opacity:1;fill:#f2f2f2;fill-opacity:1;fill-rule:nonzero;stroke:none;stroke-width:1;stroke-linecap:butt;stroke-linejoin:miter;marker:none;marker-start:none;marker-mid:none;marker-end:none;stroke-miterlimit:4;stroke-dasharray:none;stroke-dashoffset:0;stroke-opacity:1;visibility:visible;display:inline;overflow:visible;enable-background:accumulate"
       id="rect2586"
       width="328.30188"
       height="80"
       x="215.84906"
       y="566.36218"
       rx="0"
       ry="0" />
    <g
       id="g2446"
       transform="translate(40,120)">
      <path
         sodipodi:nodetypes="cccccccccccc"
         style="opacity:1;fill:#000000;fill-opacity:1;fill-rule:nonzero;stroke:none;stroke-width:1;stroke-linecap:butt;stroke-linejoin:miter;marker:none;marker-start:none;marker-mid:none;marker-end:none;stroke-miterlimit:4;stroke-dasharray:none;stroke-dashoffset:0;stroke-opacity:1;visibility:visible;display:inline;overflow:visible;filter:url(#filter4541);enable-background:accumulate"
         d="M 233.5,454.56531 C 229.068,454.56531 225.5,458.13331 225.5,462.56531 L 225.5,493.56531 C 225.5,497.99731 229.068,501.56531 233.5,501.56531 L 428.34375,501.56531 L 444.5,520.65906 L 460.65625,501.56531 L 526.5,501.56531 C 530.932,501.56531 534.5,497.99731 534.5,493.56531 L 534.5,462.56531 C 534.5,458.13331 530.932,454.56531 526.5,454.56531 L 233.5,454.56531 z"
         id="path2444" />
      <path
         id="path4775"
         d="M 233.5,452.56531 C 229.068,452.56531 225.5,456.13331 225.5,460.56531 L 225.5,491.56531 C 225.5,495.99731 229.068,499.56531 233.5,499.56531 L 428.34375,499.56531 L 444.5,518.65906 L 460.65625,499.56531 L 526.5,499.56531 C 530.932,499.56531 534.5,495.99731 534.5,491.56531 L 534.5,460.56531 C 534.5,456.13331 530.932,452.56531 526.5,452.56531 L 233.5,452.56531 z"
         style="fill:#ffffff;fill-opacity:1;fill-rule:nonzero;stroke:none;stroke-width:1;stroke-linecap:butt;stroke-linejoin:miter;marker:none;marker-start:none;marker-mid:none;marker-end:none;stroke-miterlimit:4;stroke-dasharray:none;stroke-dashoffset:0;stroke-opacity:1;visibility:visible;display:inline;overflow:visible;enable-background:accumulate"
         sodipodi:nodetypes="cccccccccccc" />
      <path
         sodipodi:nodetypes="ccccccccccc"
         id="path4785"
         d="M 519.71966,470.14793 L 517.71097,472.29276 L 520.92488,475.69769 L 517.71097,479.12942 L 519.71966,481.30106 L 519.795,481.19382 L 524.66608,475.96579 L 524.91718,475.72449 L 524.66608,475.45639 L 519.795,470.25517 L 519.71966,470.14793 z"
         style="fill:#000000;fill-opacity:1;fill-rule:evenodd;stroke:none;stroke-width:1px;stroke-linecap:butt;stroke-linejoin:miter;stroke-opacity:1;display:inline" />
    </g>
    <path
       sodipodi:nodetypes="ccccccccccc"
       id="path4799"
       d="M 874.46966,473.7495 L 872.46097,475.89432 L 875.67488,479.29926 L 872.46097,482.73098 L 874.46966,484.90262 L 874.545,484.79538 L 879.41608,479.56736 L 879.66718,479.32606 L 879.41608,479.05795 L 874.545,473.85674 L 874.46966,473.7495 z"
       style="fill:#ffffff;fill-opacity:1;fill-rule:evenodd;stroke:none;stroke-width:1px;stroke-linecap:butt;stroke-linejoin:miter;stroke-opacity:1;display:inline" />
    <g
       id="g2473"
       transform="translate(-5.8593741e-8,99.999995)">
      <path
         id="path2453"
         d="M 233.5,354.56531 C 229.068,354.56531 225.5,358.13331 225.5,362.56531 L 225.5,393.56531 C 225.5,397.99731 229.068,401.56531 233.5,401.56531 L 428.34375,401.56531 L 444.5,420.65906 L 460.65625,401.56531 L 526.5,401.56531 C 530.932,401.56531 534.5,397.99731 534.5,393.56531 L 534.5,362.56531 C 534.5,358.13331 530.932,354.56531 526.5,354.56531 L 233.5,354.56531 z"
         style="fill:#000000;fill-opacity:1;fill-rule:nonzero;stroke:none;stroke-width:1;stroke-linecap:butt;stroke-linejoin:miter;marker:none;marker-start:none;marker-mid:none;marker-end:none;stroke-miterlimit:4;stroke-dasharray:none;stroke-dashoffset:0;stroke-opacity:1;visibility:visible;display:inline;overflow:visible;filter:url(#filter4541);enable-background:accumulate"
         sodipodi:nodetypes="cccccccccccc" />
      <path
         sodipodi:nodetypes="cccccccccccc"
         style="opacity:1;fill:url(#linearGradient2478);fill-opacity:1;fill-rule:nonzero;stroke:none;stroke-width:1;stroke-linecap:butt;stroke-linejoin:miter;marker:none;marker-start:none;marker-mid:none;marker-end:none;stroke-miterlimit:4;stroke-dasharray:none;stroke-dashoffset:0;stroke-opacity:1;visibility:visible;display:inline;overflow:visible;enable-background:accumulate"
         d="M 233.5,352.56531 C 229.068,352.56531 225.5,356.13331 225.5,360.56531 L 225.5,391.56531 C 225.5,395.99731 229.068,399.56531 233.5,399.56531 L 428.34375,399.56531 L 444.5,418.65906 L 460.65625,399.56531 L 526.5,399.56531 C 530.932,399.56531 534.5,395.99731 534.5,391.56531 L 534.5,360.56531 C 534.5,356.13331 530.932,352.56531 526.5,352.56531 L 233.5,352.56531 z"
         id="path2455" />
      <path
         style="fill:#ffffff;fill-opacity:1;fill-rule:evenodd;stroke:none;stroke-width:1px;stroke-linecap:butt;stroke-linejoin:miter;stroke-opacity:1;display:inline"
         d="M 519.71966,370.14793 L 517.71097,372.29276 L 520.92488,375.69769 L 517.71097,379.12942 L 519.71966,381.30106 L 519.795,381.19382 L 524.66608,375.96579 L 524.91718,375.72449 L 524.66608,375.45639 L 519.795,370.25517 L 519.71966,370.14793 z"
         id="path2457"
         sodipodi:nodetypes="ccccccccccc" />
    </g>
  </g>
</svg>
