<?xml version="1.0" encoding="UTF-8" standalone="no"?>
<!-- Created with Inkscape (http://www.inkscape.org/) -->

<svg
   xmlns:dc="http://purl.org/dc/elements/1.1/"
   xmlns:cc="http://creativecommons.org/ns#"
   xmlns:rdf="http://www.w3.org/1999/02/22-rdf-syntax-ns#"
   xmlns:svg="http://www.w3.org/2000/svg"
   xmlns="http://www.w3.org/2000/svg"
   xmlns:xlink="http://www.w3.org/1999/xlink"
   xmlns:sodipodi="http://sodipodi.sourceforge.net/DTD/sodipodi-0.dtd"
   xmlns:inkscape="http://www.inkscape.org/namespaces/inkscape"
   width="512"
   height="512"
   id="svg2394"
   sodipodi:version="0.32"
   inkscape:version="0.47 r22583"
   version="1.0"
   inkscape:export-filename="/Users/millenomi/Developer/Multiverse/Mover/3/iPhone/Variants/Lite/Icon512.png"
   inkscape:export-xdpi="90"
   inkscape:export-ydpi="90"
   sodipodi:docname="icon.svg"
   inkscape:output_extension="org.inkscape.output.svg.inkscape">
  <defs
     id="defs2396">
    <linearGradient
       inkscape:collect="always"
       xlink:href="#linearGradient3231"
       id="linearGradient4561"
       gradientUnits="userSpaceOnUse"
       gradientTransform="matrix(1.3298447,0,0,1.5308677,124.46507,-580.0552)"
       x1="339"
       y1="579.36218"
       x2="339"
       y2="490.35657" />
    <linearGradient
       inkscape:collect="always"
       xlink:href="#linearGradient3217"
       id="linearGradient4559"
       gradientUnits="userSpaceOnUse"
       gradientTransform="matrix(1.3298447,0,0,1.3298447,124.46507,-469.5125)"
       x1="339"
       y1="579.36218"
       x2="339"
       y2="432.14465" />
    <linearGradient
       inkscape:collect="always"
       xlink:href="#linearGradient3371"
       id="linearGradient4557"
       gradientUnits="userSpaceOnUse"
       x1="253.99918"
       y1="578.77551"
       x2="253.94736"
       y2="414.89465" />
    <linearGradient
       inkscape:collect="always"
       id="linearGradient3514">
      <stop
         style="stop-color:#cccccc;stop-opacity:1;"
         offset="0"
         id="stop3516" />
      <stop
         style="stop-color:#9d9d9d;stop-opacity:1"
         offset="1"
         id="stop3518" />
    </linearGradient>
    <linearGradient
       inkscape:collect="always"
       xlink:href="#linearGradient3514"
       id="linearGradient6003"
       gradientUnits="userSpaceOnUse"
       gradientTransform="translate(-387.97035,86.757078)"
       x1="539.08148"
       y1="238.93694"
       x2="539.86902"
       y2="191.76646" />
    <linearGradient
       id="linearGradient3532"
       inkscape:collect="always">
      <stop
         id="stop3534"
         offset="0"
         style="stop-color:#f7f7f7;stop-opacity:1" />
      <stop
         id="stop3536"
         offset="1"
         style="stop-color:#ededed;stop-opacity:1" />
    </linearGradient>
    <linearGradient
       inkscape:collect="always"
       xlink:href="#linearGradient3532"
       id="linearGradient4567"
       gradientUnits="userSpaceOnUse"
       gradientTransform="matrix(1.3298451,0,0,1.5308681,-279.87207,-516.91842)"
       x1="339.01566"
       y1="533.38025"
       x2="339"
       y2="490.35657" />
    <linearGradient
       inkscape:collect="always"
       id="linearGradient3526">
      <stop
         style="stop-color:#ebebeb;stop-opacity:1"
         offset="0"
         id="stop3528" />
      <stop
         style="stop-color:#ffffff;stop-opacity:1"
         offset="1"
         id="stop3530" />
    </linearGradient>
    <linearGradient
       inkscape:collect="always"
       xlink:href="#linearGradient3526"
       id="linearGradient4565"
       gradientUnits="userSpaceOnUse"
       gradientTransform="matrix(1.3298449,0,0,1.3298449,-279.87208,-406.37564)"
       x1="339"
       y1="579.36218"
       x2="339"
       y2="432.14465" />
    <filter
       inkscape:collect="always"
       id="filter3357">
      <feGaussianBlur
         inkscape:collect="always"
         stdDeviation="1.520411"
         id="feGaussianBlur3359" />
    </filter>
    <linearGradient
       inkscape:collect="always"
       id="linearGradient3371">
      <stop
         style="stop-color:#000000;stop-opacity:1;"
         offset="0"
         id="stop3373" />
      <stop
         style="stop-color:#000000;stop-opacity:0;"
         offset="1"
         id="stop3375" />
    </linearGradient>
    <linearGradient
       inkscape:collect="always"
       id="linearGradient3155">
      <stop
         style="stop-color:#ffffff;stop-opacity:1"
         offset="0"
         id="stop3157" />
      <stop
         style="stop-color:#d5d5d5;stop-opacity:1"
         offset="1"
         id="stop3159" />
    </linearGradient>
    <radialGradient
       inkscape:collect="always"
       xlink:href="#linearGradient3155"
       id="radialGradient3161"
       cx="356.54471"
       cy="239.43068"
       fx="356.54471"
       fy="239.43068"
       r="160"
       gradientTransform="matrix(1.7125,0,0,2.2580327,-114.00001,-298.78441)"
       gradientUnits="userSpaceOnUse" />
    <linearGradient
       inkscape:collect="always"
       id="linearGradient3231">
      <stop
         style="stop-color:#f7f7f7;stop-opacity:1"
         offset="0"
         id="stop3233" />
      <stop
         style="stop-color:#e3e3e3;stop-opacity:1"
         offset="1"
         id="stop3235" />
    </linearGradient>
    <linearGradient
       id="linearGradient3217"
       inkscape:collect="always">
      <stop
         id="stop3219"
         offset="0"
         style="stop-color:#f2f2f2;stop-opacity:1;" />
      <stop
         id="stop3221"
         offset="1"
         style="stop-color:#ffffff;stop-opacity:1" />
    </linearGradient>
    <inkscape:perspective
       sodipodi:type="inkscape:persp3d"
       inkscape:vp_x="0 : 526.18109 : 1"
       inkscape:vp_y="0 : 1000 : 0"
       inkscape:vp_z="744.09448 : 526.18109 : 1"
       inkscape:persp3d-origin="372.04724 : 350.78739 : 1"
       id="perspective2402" />
    <linearGradient
       inkscape:collect="always"
       xlink:href="#linearGradient3217"
       id="linearGradient2568"
       gradientUnits="userSpaceOnUse"
       x1="339"
       y1="579.36218"
       x2="339"
       y2="432.14465" />
    <linearGradient
       inkscape:collect="always"
       xlink:href="#linearGradient3231"
       id="linearGradient2570"
       gradientUnits="userSpaceOnUse"
       gradientTransform="matrix(1,0,0,1.1511628,0,-83.124516)"
       x1="339"
       y1="579.36218"
       x2="339"
       y2="490.35657" />
    <filter
       inkscape:collect="always"
       id="filter3334">
      <feGaussianBlur
         inkscape:collect="always"
         stdDeviation="6.8497695"
         id="feGaussianBlur3336" />
    </filter>
  </defs>
  <sodipodi:namedview
     id="base"
     pagecolor="#ffffff"
     bordercolor="#666666"
     borderopacity="1.0"
     inkscape:pageopacity="0.0"
     inkscape:pageshadow="2"
     inkscape:zoom="0.70710678"
     inkscape:cx="295"
     inkscape:cy="306.2766"
     inkscape:document-units="px"
     inkscape:current-layer="layer1"
     showgrid="false"
     borderlayer="true"
     inkscape:window-width="1280"
     inkscape:window-height="710"
     inkscape:window-x="0"
     inkscape:window-y="22"
     inkscape:window-maximized="0" />
  <metadata
     id="metadata2399">
    <rdf:RDF>
      <cc:Work
         rdf:about="">
        <dc:format>image/svg+xml</dc:format>
        <dc:type
           rdf:resource="http://purl.org/dc/dcmitype/StillImage" />
        <dc:title></dc:title>
      </cc:Work>
    </rdf:RDF>
  </metadata>
  <g
     inkscape:label="Livello 1"
     inkscape:groupmode="layer"
     id="layer1">
    <rect
       style="opacity:1;fill:url(#radialGradient3161);fill-opacity:1;fill-rule:nonzero;stroke:none;stroke-width:5;stroke-linecap:butt;stroke-linejoin:miter;marker:none;marker-start:none;marker-mid:none;marker-end:none;stroke-miterlimit:4;stroke-dasharray:none;stroke-dashoffset:0;stroke-opacity:1;visibility:visible;display:inline;overflow:visible;enable-background:accumulate"
       id="rect2383"
       width="512"
       height="512"
       x="0"
       y="0" />
    <path
       transform="matrix(0,4.2190264,-2.3990547,0,643.64699,-474.88337)"
       d="M 145.72243,89.5 L 116.27757,89.5 L 131,64 L 145.72243,89.5 z"
       inkscape:randomized="0"
       inkscape:rounded="0"
       inkscape:flatsided="true"
       sodipodi:arg2="1.5707963"
       sodipodi:arg1="0.52359878"
       sodipodi:r2="8.5"
       sodipodi:r1="17"
       sodipodi:cy="81"
       sodipodi:cx="131"
       sodipodi:sides="3"
       id="path3341"
       style="fill:#9a9a9a;fill-opacity:1;fill-rule:nonzero;stroke:none;stroke-width:5;stroke-linecap:butt;stroke-linejoin:miter;marker:none;marker-start:none;marker-mid:none;marker-end:none;stroke-miterlimit:4;stroke-dasharray:none;stroke-dashoffset:0;stroke-opacity:1;visibility:visible;display:inline;overflow:visible;enable-background:accumulate"
       sodipodi:type="star"
       inkscape:export-xdpi="10"
       inkscape:export-ydpi="10" />
    <g
       style="opacity:1"
       transform="matrix(1.8412091,0.4964563,-0.5166878,1.7691145,-813.02521,-485.48443)"
       id="g3669"
       inkscape:export-filename="/Users/millenomi/Developer/Multiverse/Mover/LabsPrivate/Contingencies/Custom Page Art/Backdrop/Slides.png"
       inkscape:export-xdpi="90"
       inkscape:export-ydpi="90">
      <rect
         style="fill:url(#linearGradient4557);fill-opacity:1;fill-rule:nonzero;stroke:none;stroke-width:5;stroke-linecap:butt;stroke-linejoin:miter;marker:none;marker-start:none;marker-mid:none;marker-end:none;stroke-miterlimit:4;stroke-dasharray:none;stroke-dashoffset:0;stroke-opacity:1;visibility:visible;display:inline;overflow:visible;filter:url(#filter3357);enable-background:accumulate"
         id="rect3671"
         width="152"
         height="152"
         x="254"
         y="440.36218"
         rx="11"
         ry="11"
         transform="matrix(1.3298446,4.205256e-4,-4.205256e-4,1.3298446,124.61353,-469.47312)" />
      <rect
         ry="14.628291"
         rx="14.628291"
         y="116.1008"
         x="462.24561"
         height="202.13638"
         width="202.13638"
         id="rect3673"
         style="fill:url(#linearGradient4559);fill-opacity:1;fill-rule:nonzero;stroke:none;stroke-width:5;stroke-linecap:butt;stroke-linejoin:miter;marker:none;marker-start:none;marker-mid:none;marker-end:none;stroke-miterlimit:4;stroke-dasharray:none;stroke-dashoffset:0;stroke-opacity:1;visibility:visible;display:inline;overflow:visible;enable-background:accumulate"
         transform="matrix(1,3.1622159e-4,-3.1622159e-4,1,0,0)" />
      <rect
         ry="16.839546"
         rx="14.628291"
         y="170.62444"
         x="474.2142"
         height="131.65462"
         width="176.86934"
         id="rect3675"
         style="fill:url(#linearGradient4561);fill-opacity:1;fill-rule:nonzero;stroke:none;stroke-width:5;stroke-linecap:butt;stroke-linejoin:miter;marker:none;marker-start:none;marker-mid:none;marker-end:none;stroke-miterlimit:4;stroke-dasharray:none;stroke-dashoffset:0;stroke-opacity:1;visibility:visible;display:inline;overflow:visible;enable-background:accumulate"
         transform="matrix(1,3.1622159e-4,-3.1622159e-4,1,0,0)" />
    </g>
    <g
       id="g2849"
       transform="matrix(1.7210439,-0.8010378,0.8336813,1.6536545,-247.64169,-8.1072117)"
       inkscape:export-filename="/Users/millenomi/Developer/Multiverse/Mover/LabsPrivate/Contingencies/Custom Page Art/Backdrop/Slides.png"
       inkscape:export-xdpi="90"
       inkscape:export-ydpi="90">
      <rect
         transform="matrix(1.3298446,4.205256e-4,-4.205256e-4,1.3298446,-279.74358,-406.46408)"
         ry="11"
         rx="11"
         y="440.36218"
         x="254"
         height="152"
         width="152"
         id="rect2543"
         style="opacity:1;fill:#000000;fill-opacity:1;fill-rule:nonzero;stroke:none;stroke-width:5;stroke-linecap:butt;stroke-linejoin:miter;marker:none;marker-start:none;marker-mid:none;marker-end:none;stroke-miterlimit:4;stroke-dasharray:none;stroke-dashoffset:0;stroke-opacity:1;visibility:visible;display:inline;overflow:visible;filter:url(#filter3334);enable-background:accumulate" />
      <g
         id="g2837">
        <rect
           ry="14.628293"
           rx="14.628293"
           y="179.23772"
           x="57.908493"
           height="202.13641"
           width="202.13641"
           id="rect2546"
           style="opacity:1;fill:url(#linearGradient4565);fill-opacity:1;fill-rule:nonzero;stroke:none;stroke-width:5;stroke-linecap:butt;stroke-linejoin:miter;marker:none;marker-start:none;marker-mid:none;marker-end:none;stroke-miterlimit:4;stroke-dasharray:none;stroke-dashoffset:0;stroke-opacity:1;visibility:visible;display:inline;overflow:visible;enable-background:accumulate"
           transform="matrix(1,3.1622155e-4,-3.1622155e-4,1,0,0)" />
        <rect
           ry="16.839546"
           rx="14.628295"
           y="233.76137"
           x="69.877151"
           height="131.65462"
           width="176.8694"
           id="rect2548"
           style="opacity:1;fill:url(#linearGradient4567);fill-opacity:1;fill-rule:nonzero;stroke:none;stroke-width:1;stroke-linecap:butt;stroke-linejoin:round;marker:none;marker-start:none;marker-mid:none;marker-end:none;stroke-miterlimit:4;stroke-dasharray:none;stroke-dashoffset:0;stroke-opacity:1;visibility:visible;display:inline;overflow:visible;enable-background:accumulate"
           transform="matrix(1,3.1622151e-4,-3.1622151e-4,1,0,0)" />
        <path
           transform="matrix(0.9999899,4.5033306e-3,-4.5033306e-3,0.9999899,0,0)"
           style="font-size:57.39090347px;font-style:normal;font-variant:normal;font-weight:bold;font-stretch:normal;text-align:center;line-height:100%;writing-mode:lr-tb;text-anchor:middle;fill:url(#linearGradient6003);fill-opacity:1;fill-rule:nonzero;stroke:none;stroke-width:10;stroke-linecap:butt;stroke-linejoin:miter;marker:none;marker-start:none;marker-mid:none;marker-end:none;stroke-miterlimit:4;stroke-dashoffset:0;stroke-opacity:1;visibility:visible;display:inline;overflow:visible;enable-background:accumulate;font-family:Arial Rounded MT Bold;-inkscape-font-specification:'Arial Rounded MT Bold, Bold'"
           d="M 160.65382,296.9491 C 164.70151,293.33316 167.66986,290.71562 169.55887,289.09646 C 171.50173,287.47742 173.44464,286.04722 175.38764,284.80585 C 177.38445,283.5646 179.59722,282.40424 182.02595,281.32478 C 185.91171,279.59781 189.77056,278.86921 193.60252,279.13899 C 197.4343,279.35494 200.96933,280.46132 204.20763,282.45815 C 207.44573,284.40113 210.06327,286.91074 212.06027,289.98697 C 214.05705,293.06331 215.21741,296.38247 215.54134,299.94444 C 215.97298,304.15414 215.16344,308.33682 213.11269,312.49247 C 211.11569,316.59422 208.14734,319.91338 204.20763,322.44994 C 200.32169,324.93258 195.97711,325.93103 191.17387,325.44528 C 187.39588,325.06751 183.77989,324.15002 180.3259,322.69281 C 176.87174,321.18167 173.93037,319.53559 171.5018,317.75455 C 169.07308,315.9196 166.6984,313.86874 164.37775,311.60197 C 162.11095,309.28129 160.86964,308.03998 160.65382,307.87803 C 159.35848,309.17335 157.82034,310.68451 156.03938,312.41152 C 154.31229,314.13859 152.26143,315.9196 149.8868,317.75455 C 147.51207,319.53559 144.59769,321.18167 141.14365,322.69281 C 137.68954,324.15002 134.01958,325.06751 130.13377,325.44528 C 125.33041,325.93103 120.95884,324.93258 117.01905,322.44994 C 113.1332,319.91338 110.16485,316.59422 108.114,312.49247 C 106.1171,308.33682 105.33454,304.15414 105.7663,299.94444 C 106.14409,296.3285 107.33143,292.98236 109.32832,289.90601 C 111.3252,286.82978 113.94275,284.32018 117.18096,282.3772 C 120.41914,280.43434 123.95418,279.35494 127.78607,279.13899 C 131.61791,278.86921 135.44978,279.59781 139.28169,281.32478 C 141.7103,282.40424 143.89608,283.5646 145.83905,284.80585 C 147.83589,286.04722 149.77881,287.47742 151.66781,289.09646 C 153.61068,290.71562 156.60601,293.33316 160.65382,296.9491 M 155.22983,302.37309 C 150.48042,298.32539 146.64855,295.30307 143.73422,293.30613 C 140.87376,291.30929 138.1213,289.8521 135.4768,288.93455 C 132.1846,287.74727 129.18926,287.42345 126.49079,287.96309 C 123.84624,288.44888 121.5795,289.52828 119.69057,291.20129 C 117.8016,292.87442 116.39838,294.81734 115.48091,297.03006 C 114.5634,299.18891 114.10466,301.26675 114.10467,303.2636 C 114.15863,306.28596 115.15707,309.03843 117.10001,311.52101 C 119.04291,313.94969 121.49854,315.67673 124.46692,316.70213 C 127.43524,317.72759 130.3766,317.8895 133.29102,317.18786 C 137.66255,316.16246 141.00869,314.81321 143.32944,313.14011 C 145.65011,311.41311 149.6169,307.8241 155.22983,302.37309 M 166.15876,302.37309 C 169.82866,305.98912 172.66208,308.68762 174.65904,310.4686 C 176.65586,312.19567 178.62576,313.5719 180.56876,314.5973 C 182.5116,315.62276 184.99422,316.48628 188.01662,317.18786 C 190.98489,317.8895 193.95323,317.72759 196.92168,316.70213 C 199.88993,315.67673 202.34557,313.94969 204.28859,311.52101 C 206.2314,309.03843 207.22985,306.28596 207.28393,303.2636 C 207.39176,300.61911 206.58221,297.86664 204.85527,295.00618 C 203.1821,292.09185 200.69948,289.98703 197.40741,288.69169 C 194.16911,287.3425 190.31026,287.42345 185.83084,288.93455 C 183.13225,289.90607 180.3528,291.41723 177.49247,293.46804 C 174.63198,295.46498 170.85409,298.43333 166.15876,302.37309"
           id="path2550" />
      </g>
    </g>
  </g>
</svg>
