<?xml version="1.0" encoding="UTF-8" standalone="no"?>
<!-- Created with Inkscape (http://www.inkscape.org/) -->
<svg
   xmlns:dc="http://purl.org/dc/elements/1.1/"
   xmlns:cc="http://creativecommons.org/ns#"
   xmlns:rdf="http://www.w3.org/1999/02/22-rdf-syntax-ns#"
   xmlns:svg="http://www.w3.org/2000/svg"
   xmlns="http://www.w3.org/2000/svg"
   xmlns:sodipodi="http://sodipodi.sourceforge.net/DTD/sodipodi-0.dtd"
   xmlns:inkscape="http://www.inkscape.org/namespaces/inkscape"
   width="124"
   height="88"
   id="svg2402"
   sodipodi:version="0.32"
   inkscape:version="0.46"
   version="1.0"
   sodipodi:docname="VideoItemIcon.svg"
   inkscape:output_extension="org.inkscape.output.svg.inkscape"
   inkscape:export-filename="/Users/millenomi/Developer/Multiverse/Mover/3/VideoItemIcon.png"
   inkscape:export-xdpi="90"
   inkscape:export-ydpi="90">
  <defs
     id="defs2404">
    <inkscape:perspective
       sodipodi:type="inkscape:persp3d"
       inkscape:vp_x="0 : 526.18109 : 1"
       inkscape:vp_y="0 : 1000 : 0"
       inkscape:vp_z="744.09448 : 526.18109 : 1"
       inkscape:persp3d-origin="372.04724 : 350.78739 : 1"
       id="perspective2410" />
  </defs>
  <sodipodi:namedview
     id="base"
     pagecolor="#ffffff"
     bordercolor="#666666"
     borderopacity="1.0"
     inkscape:pageopacity="0.0"
     inkscape:pageshadow="2"
     inkscape:zoom="4"
     inkscape:cx="77.446916"
     inkscape:cy="45.015475"
     inkscape:document-units="px"
     inkscape:current-layer="layer1"
     showgrid="false"
     inkscape:window-width="640"
     inkscape:window-height="713"
     inkscape:window-x="552"
     inkscape:window-y="12" />
  <metadata
     id="metadata2407">
    <rdf:RDF>
      <cc:Work
         rdf:about="">
        <dc:format>image/svg+xml</dc:format>
        <dc:type
           rdf:resource="http://purl.org/dc/dcmitype/StillImage" />
      </cc:Work>
    </rdf:RDF>
  </metadata>
  <g
     inkscape:label="Livello 1"
     inkscape:groupmode="layer"
     id="layer1">
    <path
       style="fill:#7c7c7c;fill-opacity:1;fill-rule:nonzero;stroke:none;stroke-width:5;stroke-linecap:butt;stroke-linejoin:miter;marker:none;marker-start:none;marker-mid:none;marker-end:none;stroke-miterlimit:4;stroke-dasharray:none;stroke-dashoffset:0;stroke-opacity:1;visibility:visible;display:inline;overflow:visible;enable-background:accumulate"
       d="M 19.5 14.1875 L 19.5 73.1875 L 21.59375 73.1875 L 21.59375 70.03125 C 21.59375 69.483691 22.046192 69.03125 22.59375 69.03125 C 23.141307 69.03125 23.5625 69.483692 23.5625 70.03125 L 23.5625 73.1875 L 100.53125 73.1875 L 100.53125 70.03125 C 100.53125 69.483691 100.98369 69.03125 101.53125 69.03125 C 102.07881 69.03125 102.5 69.483692 102.5 70.03125 L 102.5 73.1875 L 104.5 73.1875 L 104.5 14.1875 L 102.5 14.1875 L 102.5 17.96875 C 102.5 18.516308 102.07881 18.96875 101.53125 18.96875 C 100.98369 18.96875 100.53125 18.516308 100.53125 17.96875 L 100.53125 14.1875 L 23.5625 14.1875 L 23.5625 17.96875 C 23.5625 18.516308 23.141308 18.96875 22.59375 18.96875 C 22.046191 18.96875 21.59375 18.516308 21.59375 17.96875 L 21.59375 14.1875 L 19.5 14.1875 z M 33.6875 20.1875 L 90.3125 20.1875 C 92.637746 20.1875 94.5 21.909042 94.5 24.0625 L 94.5 63.3125 C 94.5 65.465958 92.637748 67.21875 90.3125 67.21875 L 33.6875 67.21875 C 31.362254 67.21875 29.5 65.465958 29.5 63.3125 L 29.5 24.0625 C 29.5 21.909042 31.362252 20.1875 33.6875 20.1875 z M 22.59375 21.03125 C 23.141307 21.03125 23.5625 21.483692 23.5625 22.03125 L 23.5625 25.96875 C 23.5625 26.516308 23.141308 26.96875 22.59375 26.96875 C 22.046191 26.96875 21.59375 26.516308 21.59375 25.96875 L 21.59375 22.03125 C 21.59375 21.483691 22.046192 21.03125 22.59375 21.03125 z M 101.53125 21.03125 C 102.07881 21.03125 102.5 21.483692 102.5 22.03125 L 102.5 25.96875 C 102.5 26.516308 102.07881 26.96875 101.53125 26.96875 C 100.98369 26.96875 100.53125 26.516308 100.53125 25.96875 L 100.53125 22.03125 C 100.53125 21.483691 100.98369 21.03125 101.53125 21.03125 z M 22.59375 29.03125 C 23.141307 29.03125 23.5625 29.483692 23.5625 30.03125 L 23.5625 33.96875 C 23.5625 34.516308 23.141308 34.96875 22.59375 34.96875 C 22.046191 34.96875 21.59375 34.516308 21.59375 33.96875 L 21.59375 30.03125 C 21.59375 29.483691 22.046192 29.03125 22.59375 29.03125 z M 101.53125 29.03125 C 102.07881 29.03125 102.5 29.483692 102.5 30.03125 L 102.5 33.96875 C 102.5 34.516308 102.07881 34.96875 101.53125 34.96875 C 100.98369 34.96875 100.53125 34.516308 100.53125 33.96875 L 100.53125 30.03125 C 100.53125 29.483691 100.98369 29.03125 101.53125 29.03125 z M 22.59375 37.03125 C 23.141307 37.03125 23.5625 37.483692 23.5625 38.03125 L 23.5625 41.96875 C 23.5625 42.516308 23.141308 42.96875 22.59375 42.96875 C 22.046191 42.96875 21.59375 42.516308 21.59375 41.96875 L 21.59375 38.03125 C 21.59375 37.483691 22.046192 37.03125 22.59375 37.03125 z M 101.53125 37.03125 C 102.07881 37.03125 102.5 37.483692 102.5 38.03125 L 102.5 41.96875 C 102.5 42.516308 102.07881 42.96875 101.53125 42.96875 C 100.98369 42.96875 100.53125 42.516308 100.53125 41.96875 L 100.53125 38.03125 C 100.53125 37.483691 100.98369 37.03125 101.53125 37.03125 z M 22.59375 45.03125 C 23.141307 45.03125 23.5625 45.483692 23.5625 46.03125 L 23.5625 49.96875 C 23.5625 50.516308 23.141308 50.96875 22.59375 50.96875 C 22.046191 50.96875 21.59375 50.516308 21.59375 49.96875 L 21.59375 46.03125 C 21.59375 45.483691 22.046192 45.03125 22.59375 45.03125 z M 101.53125 45.03125 C 102.07881 45.03125 102.5 45.483692 102.5 46.03125 L 102.5 49.96875 C 102.5 50.516308 102.07881 50.96875 101.53125 50.96875 C 100.98369 50.96875 100.53125 50.516308 100.53125 49.96875 L 100.53125 46.03125 C 100.53125 45.483691 100.98369 45.03125 101.53125 45.03125 z M 22.59375 53.03125 C 23.141307 53.03125 23.5625 53.483692 23.5625 54.03125 L 23.5625 57.96875 C 23.5625 58.516308 23.141308 58.96875 22.59375 58.96875 C 22.046191 58.96875 21.59375 58.516308 21.59375 57.96875 L 21.59375 54.03125 C 21.59375 53.483691 22.046192 53.03125 22.59375 53.03125 z M 101.53125 53.03125 C 102.07881 53.03125 102.5 53.483692 102.5 54.03125 L 102.5 57.96875 C 102.5 58.516308 102.07881 58.96875 101.53125 58.96875 C 100.98369 58.96875 100.53125 58.516308 100.53125 57.96875 L 100.53125 54.03125 C 100.53125 53.483691 100.98369 53.03125 101.53125 53.03125 z M 22.59375 61.03125 C 23.141307 61.03125 23.5625 61.483692 23.5625 62.03125 L 23.5625 65.96875 C 23.5625 66.516308 23.141308 66.96875 22.59375 66.96875 C 22.046191 66.96875 21.59375 66.516308 21.59375 65.96875 L 21.59375 62.03125 C 21.59375 61.483691 22.046192 61.03125 22.59375 61.03125 z M 101.53125 61.03125 C 102.07881 61.03125 102.5 61.483692 102.5 62.03125 L 102.5 65.96875 C 102.5 66.516308 102.07881 66.96875 101.53125 66.96875 C 100.98369 66.96875 100.53125 66.516308 100.53125 65.96875 L 100.53125 62.03125 C 100.53125 61.483691 100.98369 61.03125 101.53125 61.03125 z "
       id="rect2412" />
    <path
       sodipodi:type="star"
       style="fill:#7c7c7c;fill-opacity:1;fill-rule:nonzero;stroke:none;stroke-width:5;stroke-linecap:butt;stroke-linejoin:miter;marker:none;marker-start:none;marker-mid:none;marker-end:none;stroke-miterlimit:4;stroke-dasharray:none;stroke-dashoffset:0;stroke-opacity:1;visibility:visible;display:inline;overflow:visible;enable-background:accumulate"
       id="path3186"
       sodipodi:sides="3"
       sodipodi:cx="46.681576"
       sodipodi:cy="35.388191"
       sodipodi:r1="16.7484"
       sodipodi:r2="8.3741999"
       sodipodi:arg1="2.0943951"
       sodipodi:arg2="3.1415927"
       inkscape:flatsided="true"
       inkscape:rounded="0"
       inkscape:randomized="0"
       d="M 38.307376,49.892731 L 38.307376,20.883652 L 63.429976,35.388191 L 38.307376,49.892731 z"
       transform="matrix(0.691317,0,0,0.691317,26.422331,19.535542)" />
  </g>
</svg>
