<?xml version="1.0" encoding="UTF-8" standalone="no"?>
<!-- Created with Inkscape (http://www.inkscape.org/) -->

<svg
   xmlns:dc="http://purl.org/dc/elements/1.1/"
   xmlns:cc="http://creativecommons.org/ns#"
   xmlns:rdf="http://www.w3.org/1999/02/22-rdf-syntax-ns#"
   xmlns:svg="http://www.w3.org/2000/svg"
   xmlns="http://www.w3.org/2000/svg"
   xmlns:sodipodi="http://sodipodi.sourceforge.net/DTD/sodipodi-0.dtd"
   xmlns:inkscape="http://www.inkscape.org/namespaces/inkscape"
   width="121"
   height="128"
   id="svg2"
   sodipodi:version="0.32"
   inkscape:version="0.47 r22583"
   sodipodi:docname="DocIcon.svg"
   inkscape:output_extension="org.inkscape.output.svg.inkscape"
   version="1.0"
   inkscape:export-filename="/Users/millenomi/Developer/Multiverse/Mover3/3/iPad/DocIcon.png"
   inkscape:export-xdpi="90"
   inkscape:export-ydpi="90">
  <defs
     id="defs4">
    <inkscape:perspective
       sodipodi:type="inkscape:persp3d"
       inkscape:vp_x="0 : 526.18109 : 1"
       inkscape:vp_y="0 : 1000 : 0"
       inkscape:vp_z="744.09448 : 526.18109 : 1"
       inkscape:persp3d-origin="372.04724 : 350.78739 : 1"
       id="perspective10" />
    <inkscape:perspective
       id="perspective3630"
       inkscape:persp3d-origin="0.5 : 0.33333333 : 1"
       inkscape:vp_z="1 : 0.5 : 1"
       inkscape:vp_y="0 : 1000 : 0"
       inkscape:vp_x="0 : 0.5 : 1"
       sodipodi:type="inkscape:persp3d" />
  </defs>
  <sodipodi:namedview
     id="base"
     pagecolor="#ffffff"
     bordercolor="#666666"
     borderopacity="1.0"
     inkscape:pageopacity="0.0"
     inkscape:pageshadow="2"
     inkscape:zoom="1"
     inkscape:cx="63.5"
     inkscape:cy="172.5"
     inkscape:document-units="px"
     inkscape:current-layer="layer1"
     showgrid="false"
     inkscape:window-width="720"
     inkscape:window-height="701"
     inkscape:window-x="378"
     inkscape:window-y="0"
     inkscape:window-maximized="0" />
  <metadata
     id="metadata7">
    <rdf:RDF>
      <cc:Work
         rdf:about="">
        <dc:format>image/svg+xml</dc:format>
        <dc:type
           rdf:resource="http://purl.org/dc/dcmitype/StillImage" />
        <dc:title></dc:title>
      </cc:Work>
    </rdf:RDF>
  </metadata>
  <g
     inkscape:label="Livello 1"
     inkscape:groupmode="layer"
     id="layer1"
     transform="translate(-2,22)">
    <g
       id="g3647"
       transform="matrix(1.3862069,0,0,1.3862069,-25.524138,-18.3)">
      <g
         transform="matrix(0.51761024,0,0,0.51761024,28.794731,19.76714)"
         id="g3325">
        <path
           style="font-size:102.70973206px;font-style:normal;font-variant:normal;font-weight:normal;font-stretch:normal;text-indent:0;text-align:center;text-decoration:none;line-height:100%;letter-spacing:normal;word-spacing:normal;text-transform:none;direction:ltr;block-progression:tb;writing-mode:lr-tb;text-anchor:middle;fill:#7c7c7c;fill-opacity:1;fill-rule:nonzero;stroke:none;stroke-width:0.82549262;marker:none;visibility:visible;display:inline;overflow:visible;enable-background:accumulate;font-family:Anivers;-inkscape-font-specification:Anivers"
           d="m 45.696442,49.594065 c 0.163061,0.53003 0.101904,1.019286 -0.183471,1.467771 -0.244653,0.448486 -0.652367,0.754272 -1.223143,0.917357 -0.530051,0.163086 -1.019308,0.101929 -1.467771,-0.183471 -0.448508,-0.244629 -0.754293,-0.631957 -0.917358,-1.161986 -0.163106,-0.611569 -0.346578,-1.284297 -0.550414,-2.018186 -0.203877,-0.652339 -0.42812,-1.406609 -0.672729,-2.262814 -0.203876,-0.856194 -0.448505,-1.814321 -0.733885,-2.874386 l -11.864487,0 c -0.326178,1.060065 -0.591192,2.018192 -0.795043,2.874386 -0.203863,0.856205 -0.407721,1.610475 -0.611571,2.262814 -0.203863,0.733889 -0.387334,1.406617 -0.550415,2.018186 -0.163091,0.530029 -0.468876,0.917357 -0.917357,1.161986 -0.44849,0.2854 -0.958132,0.346557 -1.528929,0.183471 -0.530031,-0.163085 -0.937745,-0.468871 -1.223143,-0.917357 -0.24463,-0.448485 -0.285401,-0.937741 -0.122314,-1.467771 l 9.785144,-35.471146 c 0.122302,-0.448448 0.346545,-0.795005 0.672728,-1.039672 0.366931,-0.285361 0.774645,-0.428061 1.223144,-0.4281 0.448471,3.9e-5 0.8358,0.142739 1.161985,0.4281 0.366928,0.244667 0.611557,0.591224 0.733886,1.039672 l 9.785143,35.471146 m -6.8496,-10.029773 C 38.43911,38.055763 38.011011,36.50645 37.562542,34.916349 37.11404,33.28551 36.665555,31.695426 36.217085,30.146092 35.809355,28.5968 35.401641,27.12903 34.993942,25.742777 c -0.366957,-1.426973 -0.693128,-2.690886 -0.978514,-3.791743 -0.326185,1.100857 -0.672742,2.36477 -1.039672,3.791743 -0.366955,1.386253 -0.774669,2.854023 -1.223143,4.403315 -0.407725,1.549334 -0.835825,3.139418 -1.2843,4.770257 -0.448495,1.590101 -0.876595,3.139414 -1.2843,4.647943 l 9.662829,0"
           id="text2481" />
        <text
           xml:space="preserve"
           style="font-size:102.70973206px;font-style:normal;font-variant:normal;font-weight:normal;font-stretch:normal;text-indent:0;text-align:center;text-decoration:none;line-height:100%;letter-spacing:normal;word-spacing:normal;text-transform:none;direction:ltr;block-progression:tb;writing-mode:lr-tb;text-anchor:middle;fill:#7c7c7c;fill-opacity:1;fill-rule:nonzero;stroke:none;stroke-width:0.82549262;marker:none;visibility:visible;display:inline;overflow:visible;enable-background:accumulate;font-family:Miso;-inkscape-font-specification:Miso"
           x="50"
           y="20"
           id="text3305"
           sodipodi:linespacing="100%"><tspan
             sodipodi:role="line"
             id="tspan3307"
             x="50"
             y="20"
             style="font-size:10px;text-align:start;text-anchor:start">bcd ef ghi jk lmno</tspan><tspan
             sodipodi:role="line"
             x="50"
             y="30"
             style="font-size:10px;text-align:start;text-anchor:start"
             id="tspan3309">pqrs tuv wxyz bcd</tspan><tspan
             sodipodi:role="line"
             x="50"
             y="40"
             style="font-size:10px;text-align:start;text-anchor:start"
             id="tspan3317">ef ghi jk lmno</tspan><tspan
             sodipodi:role="line"
             x="50"
             y="50"
             style="font-size:10px;text-align:start;text-anchor:start"
             id="tspan3311">pqrs tuv wxyz aaa</tspan><tspan
             sodipodi:role="line"
             x="50"
             y="60"
             style="font-size:10px;text-align:start;text-anchor:start"
             id="tspan3323"> </tspan></text>
      </g>
      <text
         xml:space="preserve"
         style="font-size:53.16361237px;font-style:normal;font-variant:normal;font-weight:normal;font-stretch:normal;text-indent:0;text-align:center;text-decoration:none;line-height:100%;letter-spacing:normal;word-spacing:normal;text-transform:none;direction:ltr;block-progression:tb;writing-mode:lr-tb;text-anchor:middle;fill:#7c7c7c;fill-opacity:1;fill-rule:nonzero;stroke:none;stroke-width:0.82549262;marker:none;visibility:visible;display:inline;overflow:visible;enable-background:accumulate;font-family:Miso;-inkscape-font-specification:Miso"
         x="40.610882"
         y="51.402222"
         id="text3341"
         sodipodi:linespacing="100%"><tspan
           sodipodi:role="line"
           x="40.610882"
           y="51.402222"
           style="font-size:5.17610264px;text-align:start;text-anchor:start"
           id="tspan3345">bcd ef ghi jk lmno pqrs tuv</tspan><tspan
           sodipodi:role="line"
           x="40.610882"
           y="56.578323"
           style="font-size:5.17610264px;text-align:start;text-anchor:start"
           id="tspan3347">wxyz bcd ef ghi jk lmno</tspan><tspan
           sodipodi:role="line"
           x="40.610882"
           y="61.754425"
           style="font-size:5.17610264px;text-align:start;text-anchor:start"
           id="tspan3353">pqrs tuv wxyz aa bb cde,</tspan></text>
      <g
         transform="translate(-22,2)"
         id="g3643">
        <path
           style="color:#000000;fill:none;stroke:#7c7c7c;stroke-width:3.5;stroke-linejoin:round;stroke-miterlimit:4;stroke-opacity:1;marker:none;visibility:visible;display:inline;overflow:visible;enable-background:accumulate"
           d="m 54.737473,7 47.525057,0.4738562 c 4.7585,0.3159041 15.26361,13.9851528 15.26361,15.2636168 L 118,74.262527 C 118,75.225087 117.22509,76 116.26253,76 L 54.737473,76 C 53.774913,76 53,75.225087 53,74.262527 L 53,8.7374728 C 53,7.7749129 53.774913,7 54.737473,7 z"
           id="rect2845"
           sodipodi:nodetypes="ccccccccc" />
        <path
           sodipodi:nodetypes="ccc"
           style="color:#000000;fill:none;stroke:#7c7c7c;stroke-width:3.5;stroke-linecap:butt;stroke-linejoin:round;stroke-miterlimit:4;stroke-opacity:1;stroke-dasharray:none;stroke-dashoffset:0;marker:none;visibility:visible;display:inline;overflow:visible;enable-background:accumulate"
           d="m 102.19499,8.918301 -0.78976,12.636165 16.26906,0.631809"
           id="path3620" />
      </g>
    </g>
  </g>
</svg>
