<?xml version="1.0" encoding="UTF-8" standalone="no"?>
<!-- Created with Inkscape (http://www.inkscape.org/) -->

<svg
   xmlns:dc="http://purl.org/dc/elements/1.1/"
   xmlns:cc="http://creativecommons.org/ns#"
   xmlns:rdf="http://www.w3.org/1999/02/22-rdf-syntax-ns#"
   xmlns:svg="http://www.w3.org/2000/svg"
   xmlns="http://www.w3.org/2000/svg"
   xmlns:xlink="http://www.w3.org/1999/xlink"
   xmlns:sodipodi="http://sodipodi.sourceforge.net/DTD/sodipodi-0.dtd"
   xmlns:inkscape="http://www.inkscape.org/namespaces/inkscape"
   width="155"
   height="155"
   id="svg2"
   version="1.1"
   inkscape:version="0.47 r22583"
   sodipodi:docname="WaypointLogo.svg"
   inkscape:export-filename="/Users/millenomi/Developer/Multiverse/Mover/3/Mac/WaypointLogo.png"
   inkscape:export-xdpi="90"
   inkscape:export-ydpi="90">
  <defs
     id="defs4">
    <inkscape:perspective
       sodipodi:type="inkscape:persp3d"
       inkscape:vp_x="0 : 526.18109 : 1"
       inkscape:vp_y="0 : 1000 : 0"
       inkscape:vp_z="744.09448 : 526.18109 : 1"
       inkscape:persp3d-origin="372.04724 : 350.78739 : 1"
       id="perspective10" />
    <linearGradient
       gradientUnits="userSpaceOnUse"
       y2="-344.20926"
       x2="446.42859"
       y1="44.790741"
       x1="351.42856"
       id="linearGradient3154"
       xlink:href="#linearGradient3155"
       inkscape:collect="always" />
    <inkscape:perspective
       id="perspective2491"
       inkscape:persp3d-origin="372.04724 : 350.78739 : 1"
       inkscape:vp_z="744.09448 : 526.18109 : 1"
       inkscape:vp_y="0 : 1000 : 0"
       inkscape:vp_x="0 : 526.18109 : 1"
       sodipodi:type="inkscape:persp3d" />
    <linearGradient
       id="linearGradient3155">
      <stop
         id="stop3157"
         offset="0"
         style="stop-color:#4ea4e9;stop-opacity:1" />
      <stop
         id="stop3159"
         offset="1"
         style="stop-color:#003ca6;stop-opacity:1" />
    </linearGradient>
    <filter
       id="filter2431"
       height="1.2613486"
       y="-0.1306743"
       width="1.2613486"
       x="-0.1306743">
      <feGaussianBlur
         id="feGaussianBlur2433"
         stdDeviation="0.56787917" />
    </filter>
    <filter
       id="filter2425">
      <feGaussianBlur
         id="feGaussianBlur2427"
         stdDeviation="0.38165588" />
    </filter>
    <filter
       id="filter2419">
      <feGaussianBlur
         id="feGaussianBlur2421"
         stdDeviation="0.25387529" />
    </filter>
    <filter
       id="filter2413">
      <feGaussianBlur
         id="feGaussianBlur2415"
         stdDeviation="0.15578021" />
    </filter>
    <inkscape:perspective
       id="perspective2403"
       inkscape:persp3d-origin="372.04724 : 350.78739 : 1"
       inkscape:vp_z="744.09448 : 526.18109 : 1"
       inkscape:vp_y="0 : 1000 : 0"
       inkscape:vp_x="0 : 526.18109 : 1"
       sodipodi:type="inkscape:persp3d" />
    <filter
       inkscape:collect="always"
       id="filter4091">
      <feGaussianBlur
         inkscape:collect="always"
         stdDeviation="0.66207546"
         id="feGaussianBlur4093" />
    </filter>
    <filter
       inkscape:collect="always"
       id="filter4180">
      <feGaussianBlur
         inkscape:collect="always"
         stdDeviation="9.8625794"
         id="feGaussianBlur4182" />
    </filter>
    <inkscape:perspective
       id="perspective3102"
       inkscape:persp3d-origin="0.5 : 0.33333333 : 1"
       inkscape:vp_z="1 : 0.5 : 1"
       inkscape:vp_y="0 : 1000 : 0"
       inkscape:vp_x="0 : 0.5 : 1"
       sodipodi:type="inkscape:persp3d" />
    <filter
       color-interpolation-filters="sRGB"
       inkscape:collect="always"
       id="filter5502">
      <feGaussianBlur
         inkscape:collect="always"
         stdDeviation="3.4435877"
         id="feGaussianBlur5504" />
    </filter>
    <linearGradient
       inkscape:collect="always"
       xlink:href="#linearGradient3526"
       id="linearGradient5606"
       gradientUnits="userSpaceOnUse"
       gradientTransform="matrix(1.3298449,0,0,1.3298449,-279.87208,-406.37564)"
       x1="339"
       y1="579.36218"
       x2="339"
       y2="432.14465" />
    <linearGradient
       inkscape:collect="always"
       id="linearGradient3526">
      <stop
         style="stop-color:#ebebeb;stop-opacity:1"
         offset="0"
         id="stop3528" />
      <stop
         style="stop-color:#ffffff;stop-opacity:1"
         offset="1"
         id="stop3530" />
    </linearGradient>
    <linearGradient
       inkscape:collect="always"
       xlink:href="#linearGradient3532"
       id="linearGradient5608"
       gradientUnits="userSpaceOnUse"
       gradientTransform="matrix(1.3298451,0,0,1.5308681,-279.87207,-516.91842)"
       x1="339.01566"
       y1="533.38025"
       x2="339"
       y2="490.35657" />
    <linearGradient
       id="linearGradient3532"
       inkscape:collect="always">
      <stop
         id="stop3534"
         offset="0"
         style="stop-color:#f7f7f7;stop-opacity:1" />
      <stop
         id="stop3536"
         offset="1"
         style="stop-color:#ededed;stop-opacity:1" />
    </linearGradient>
    <filter
       color-interpolation-filters="sRGB"
       inkscape:collect="always"
       id="filter5025"
       x="-0.11877133"
       width="1.2375427"
       y="-0.11877133"
       height="1.2375427">
      <feGaussianBlur
         inkscape:collect="always"
         stdDeviation="4.7508532"
         id="feGaussianBlur5027" />
    </filter>
    <linearGradient
       inkscape:collect="always"
       xlink:href="#linearGradient5444"
       id="linearGradient5055"
       gradientUnits="userSpaceOnUse"
       gradientTransform="matrix(0.8421053,0,0,1.0434782,113.46199,-18.748312)"
       x1="204.88889"
       y1="422.5824"
       x2="204.88889"
       y2="405.2171" />
    <linearGradient
       id="linearGradient5444"
       inkscape:collect="always">
      <stop
         id="stop5446"
         offset="0"
         style="stop-color:#f9dfa4;stop-opacity:1" />
      <stop
         id="stop5448"
         offset="1"
         style="stop-color:#ffffff;stop-opacity:1" />
    </linearGradient>
    <linearGradient
       inkscape:collect="always"
       xlink:href="#linearGradient3526"
       id="linearGradient4565"
       gradientUnits="userSpaceOnUse"
       gradientTransform="matrix(1.3298449,0,0,1.3298449,-279.87208,-406.37564)"
       x1="339"
       y1="579.36218"
       x2="339"
       y2="432.14465" />
    <linearGradient
       inkscape:collect="always"
       xlink:href="#linearGradient3532"
       id="linearGradient4567"
       gradientUnits="userSpaceOnUse"
       gradientTransform="matrix(1.3298451,0,0,1.5308681,-279.87207,-516.91842)"
       x1="339.01566"
       y1="533.38025"
       x2="339"
       y2="490.35657" />
    <linearGradient
       inkscape:collect="always"
       xlink:href="#linearGradient3514"
       id="linearGradient6003"
       gradientUnits="userSpaceOnUse"
       gradientTransform="translate(-387.97035,86.757078)"
       x1="539.08148"
       y1="238.93694"
       x2="539.86902"
       y2="191.76646" />
    <linearGradient
       inkscape:collect="always"
       id="linearGradient3514">
      <stop
         style="stop-color:#cccccc;stop-opacity:1;"
         offset="0"
         id="stop3516" />
      <stop
         style="stop-color:#9d9d9d;stop-opacity:1"
         offset="1"
         id="stop3518" />
    </linearGradient>
    <linearGradient
       inkscape:collect="always"
       xlink:href="#linearGradient3526"
       id="linearGradient5590"
       gradientUnits="userSpaceOnUse"
       gradientTransform="matrix(1.3298449,0,0,1.3298449,-279.87208,-406.37564)"
       x1="339"
       y1="579.36218"
       x2="339"
       y2="432.14465" />
    <linearGradient
       inkscape:collect="always"
       xlink:href="#linearGradient3532"
       id="linearGradient5592"
       gradientUnits="userSpaceOnUse"
       gradientTransform="matrix(1.3298451,0,0,1.5308681,-279.87207,-516.91842)"
       x1="339.01566"
       y1="533.38025"
       x2="339"
       y2="490.35657" />
    <linearGradient
       inkscape:collect="always"
       xlink:href="#linearGradient3526"
       id="linearGradient5518"
       gradientUnits="userSpaceOnUse"
       gradientTransform="matrix(1.3298449,0,0,1.3298449,-279.87208,-406.37564)"
       x1="339"
       y1="579.36218"
       x2="339"
       y2="432.14465" />
    <linearGradient
       inkscape:collect="always"
       xlink:href="#linearGradient3532"
       id="linearGradient5520"
       gradientUnits="userSpaceOnUse"
       gradientTransform="matrix(1.3298451,0,0,1.5308681,-279.87207,-516.91842)"
       x1="339.01566"
       y1="533.38025"
       x2="339"
       y2="490.35657" />
    <linearGradient
       inkscape:collect="always"
       xlink:href="#linearGradient3526"
       id="linearGradient5572"
       gradientUnits="userSpaceOnUse"
       gradientTransform="matrix(1.3298449,0,0,1.3298449,-279.87208,-406.37564)"
       x1="339"
       y1="579.36218"
       x2="339"
       y2="432.14465" />
    <linearGradient
       inkscape:collect="always"
       xlink:href="#linearGradient3532"
       id="linearGradient5574"
       gradientUnits="userSpaceOnUse"
       gradientTransform="matrix(1.3298451,0,0,1.5308681,-279.87207,-516.91842)"
       x1="339.01566"
       y1="533.38025"
       x2="339"
       y2="490.35657" />
    <linearGradient
       inkscape:collect="always"
       xlink:href="#linearGradient3526"
       id="linearGradient5620"
       gradientUnits="userSpaceOnUse"
       gradientTransform="matrix(1.3298449,0,0,1.3298449,-279.87208,-406.37564)"
       x1="339"
       y1="579.36218"
       x2="339"
       y2="432.14465" />
    <linearGradient
       inkscape:collect="always"
       xlink:href="#linearGradient3532"
       id="linearGradient5622"
       gradientUnits="userSpaceOnUse"
       gradientTransform="matrix(1.3298451,0,0,1.5308681,-279.87207,-516.91842)"
       x1="339.01566"
       y1="533.38025"
       x2="339"
       y2="490.35657" />
    <linearGradient
       inkscape:collect="always"
       xlink:href="#linearGradient3526"
       id="linearGradient5554"
       gradientUnits="userSpaceOnUse"
       gradientTransform="matrix(1.3298449,0,0,1.3298449,-279.87208,-406.37564)"
       x1="339"
       y1="579.36218"
       x2="339"
       y2="432.14465" />
    <linearGradient
       inkscape:collect="always"
       xlink:href="#linearGradient3532"
       id="linearGradient5556"
       gradientUnits="userSpaceOnUse"
       gradientTransform="matrix(1.3298451,0,0,1.5308681,-279.87207,-516.91842)"
       x1="339.01566"
       y1="533.38025"
       x2="339"
       y2="490.35657" />
    <linearGradient
       inkscape:collect="always"
       xlink:href="#linearGradient4909"
       id="linearGradient4928"
       gradientUnits="userSpaceOnUse"
       gradientTransform="translate(84.571449,708.20926)"
       x1="73.428558"
       y1="-367.20926"
       x2="222.42859"
       y2="-676.20923" />
    <linearGradient
       id="linearGradient4909">
      <stop
         id="stop4911"
         offset="0"
         style="stop-color:#4ea4e9;stop-opacity:1" />
      <stop
         id="stop4913"
         offset="1"
         style="stop-color:#003ca6;stop-opacity:1" />
    </linearGradient>
    <linearGradient
       y2="-676.20923"
       x2="222.42859"
       y1="-367.20926"
       x1="73.428558"
       gradientTransform="translate(221.22175,726.32103)"
       gradientUnits="userSpaceOnUse"
       id="linearGradient3278"
       xlink:href="#linearGradient4909"
       inkscape:collect="always" />
    <linearGradient
       inkscape:collect="always"
       xlink:href="#linearGradient4909"
       id="linearGradient3794"
       gradientUnits="userSpaceOnUse"
       gradientTransform="translate(1133.536,1293.3991)"
       x1="73.428558"
       y1="-367.20926"
       x2="222.42859"
       y2="-676.20923" />
    <linearGradient
       inkscape:collect="always"
       xlink:href="#linearGradient3526"
       id="linearGradient3796"
       gradientUnits="userSpaceOnUse"
       gradientTransform="matrix(1.3298449,0,0,1.3298449,-279.87208,-406.37564)"
       x1="339"
       y1="579.36218"
       x2="339"
       y2="432.14465" />
    <linearGradient
       inkscape:collect="always"
       xlink:href="#linearGradient3532"
       id="linearGradient3798"
       gradientUnits="userSpaceOnUse"
       gradientTransform="matrix(1.3298451,0,0,1.5308681,-279.87207,-516.91842)"
       x1="339.01566"
       y1="533.38025"
       x2="339"
       y2="490.35657" />
    <linearGradient
       inkscape:collect="always"
       xlink:href="#linearGradient3526"
       id="linearGradient3800"
       gradientUnits="userSpaceOnUse"
       gradientTransform="matrix(1.3298449,0,0,1.3298449,-279.87208,-406.37564)"
       x1="339"
       y1="579.36218"
       x2="339"
       y2="432.14465" />
    <linearGradient
       inkscape:collect="always"
       xlink:href="#linearGradient3532"
       id="linearGradient3802"
       gradientUnits="userSpaceOnUse"
       gradientTransform="matrix(1.3298451,0,0,1.5308681,-279.87207,-516.91842)"
       x1="339.01566"
       y1="533.38025"
       x2="339"
       y2="490.35657" />
    <linearGradient
       inkscape:collect="always"
       xlink:href="#linearGradient3526"
       id="linearGradient3804"
       gradientUnits="userSpaceOnUse"
       gradientTransform="matrix(1.3298449,0,0,1.3298449,-279.87208,-406.37564)"
       x1="339"
       y1="579.36218"
       x2="339"
       y2="432.14465" />
    <linearGradient
       inkscape:collect="always"
       xlink:href="#linearGradient3532"
       id="linearGradient3806"
       gradientUnits="userSpaceOnUse"
       gradientTransform="matrix(1.3298451,0,0,1.5308681,-279.87207,-516.91842)"
       x1="339.01566"
       y1="533.38025"
       x2="339"
       y2="490.35657" />
    <linearGradient
       inkscape:collect="always"
       xlink:href="#linearGradient3526"
       id="linearGradient3808"
       gradientUnits="userSpaceOnUse"
       gradientTransform="matrix(1.3298449,0,0,1.3298449,-279.87208,-406.37564)"
       x1="339"
       y1="579.36218"
       x2="339"
       y2="432.14465" />
    <linearGradient
       inkscape:collect="always"
       xlink:href="#linearGradient3532"
       id="linearGradient3810"
       gradientUnits="userSpaceOnUse"
       gradientTransform="matrix(1.3298451,0,0,1.5308681,-279.87207,-516.91842)"
       x1="339.01566"
       y1="533.38025"
       x2="339"
       y2="490.35657" />
    <linearGradient
       inkscape:collect="always"
       xlink:href="#linearGradient3526"
       id="linearGradient3812"
       gradientUnits="userSpaceOnUse"
       gradientTransform="matrix(1.3298449,0,0,1.3298449,-279.87208,-406.37564)"
       x1="339"
       y1="579.36218"
       x2="339"
       y2="432.14465" />
    <linearGradient
       inkscape:collect="always"
       xlink:href="#linearGradient3532"
       id="linearGradient3814"
       gradientUnits="userSpaceOnUse"
       gradientTransform="matrix(1.3298451,0,0,1.5308681,-279.87207,-516.91842)"
       x1="339.01566"
       y1="533.38025"
       x2="339"
       y2="490.35657" />
    <linearGradient
       inkscape:collect="always"
       xlink:href="#linearGradient3526"
       id="linearGradient3816"
       gradientUnits="userSpaceOnUse"
       gradientTransform="matrix(1.3298449,0,0,1.3298449,-279.87208,-406.37564)"
       x1="339"
       y1="579.36218"
       x2="339"
       y2="432.14465" />
    <linearGradient
       inkscape:collect="always"
       xlink:href="#linearGradient3532"
       id="linearGradient3818"
       gradientUnits="userSpaceOnUse"
       gradientTransform="matrix(1.3298451,0,0,1.5308681,-279.87207,-516.91842)"
       x1="339.01566"
       y1="533.38025"
       x2="339"
       y2="490.35657" />
    <linearGradient
       inkscape:collect="always"
       xlink:href="#linearGradient3514"
       id="linearGradient3820"
       gradientUnits="userSpaceOnUse"
       gradientTransform="translate(-387.97035,86.757078)"
       x1="539.08148"
       y1="238.93694"
       x2="539.86902"
       y2="191.76646" />
    <linearGradient
       inkscape:collect="always"
       xlink:href="#linearGradient5444"
       id="linearGradient3822"
       gradientUnits="userSpaceOnUse"
       gradientTransform="matrix(0.8421053,0,0,1.0434782,113.46199,-18.748312)"
       x1="204.88889"
       y1="422.5824"
       x2="204.88889"
       y2="405.2171" />
    <linearGradient
       inkscape:collect="always"
       xlink:href="#linearGradient3526"
       id="linearGradient3824"
       gradientUnits="userSpaceOnUse"
       gradientTransform="matrix(1.3298449,0,0,1.3298449,-279.87208,-406.37564)"
       x1="339"
       y1="579.36218"
       x2="339"
       y2="432.14465" />
    <linearGradient
       inkscape:collect="always"
       xlink:href="#linearGradient3532"
       id="linearGradient3826"
       gradientUnits="userSpaceOnUse"
       gradientTransform="matrix(1.3298451,0,0,1.5308681,-279.87207,-516.91842)"
       x1="339.01566"
       y1="533.38025"
       x2="339"
       y2="490.35657" />
  </defs>
  <sodipodi:namedview
     id="base"
     pagecolor="#ffffff"
     bordercolor="#666666"
     borderopacity="1.0"
     inkscape:pageopacity="0.0"
     inkscape:pageshadow="2"
     inkscape:zoom="0.5"
     inkscape:cx="980"
     inkscape:cy="97.101404"
     inkscape:document-units="px"
     inkscape:current-layer="layer1"
     showgrid="false"
     inkscape:window-width="1440"
     inkscape:window-height="807"
     inkscape:window-x="0"
     inkscape:window-y="0"
     inkscape:window-maximized="1"
     borderlayer="true" />
  <metadata
     id="metadata7">
    <rdf:RDF>
      <cc:Work
         rdf:about="">
        <dc:format>image/svg+xml</dc:format>
        <dc:type
           rdf:resource="http://purl.org/dc/dcmitype/StillImage" />
        <dc:title></dc:title>
      </cc:Work>
    </rdf:RDF>
  </metadata>
  <g
     inkscape:label="Livello 1"
     inkscape:groupmode="layer"
     id="layer1"
     transform="translate(0,-897.36218)">
    <g
       transform="matrix(0.484375,0,0,0.32291667,-170.22321,1015.6173)"
       id="layer1-9"
       inkscape:label="Livello 1">
      <rect
         y="-366.20926"
         x="351.42856"
         height="480"
         width="320"
         id="rect2383"
         style="fill:url(#linearGradient3154);fill-opacity:1;fill-rule:nonzero;stroke:none;stroke-width:5;marker:none;visibility:visible;display:inline;overflow:visible;enable-background:accumulate" />
    </g>
    <g
       inkscape:export-ydpi="90"
       inkscape:export-xdpi="90"
       inkscape:export-filename="/Users/millenomi/Developer/Multiverse/Mover/LabsPrivate/Contingencies/Custom Page Art/Backdrop/Slides.png"
       transform="matrix(1.1285608,-0.2326902,0.2613892,1.0933148,1275.3477,684.10406)"
       id="g5542">
      <rect
         style="fill:#000000;fill-opacity:1;fill-rule:nonzero;stroke:none;stroke-width:5;marker:none;visibility:visible;display:inline;overflow:visible;filter:url(#filter5502);enable-background:accumulate"
         id="rect5544"
         width="152"
         height="152"
         x="254"
         y="440.36218"
         rx="11"
         ry="11"
         transform="matrix(1.3298446,4.205256e-4,-4.205256e-4,1.3298446,-279.74358,-406.46408)" />
      <g
         id="g5546">
        <rect
           inkscape:export-ydpi="90"
           inkscape:export-xdpi="90"
           inkscape:export-filename="/Users/millenomi/Developer/Multiverse/Mover/LabsPrivate/Contingencies/Custom Page Art/Backdrop/rect2546.png"
           transform="matrix(1,3.1622155e-4,-3.1622155e-4,1,0,0)"
           style="fill:url(#linearGradient3796);fill-opacity:1;fill-rule:nonzero;stroke:none;stroke-width:5;marker:none;visibility:visible;display:inline;overflow:visible;enable-background:accumulate"
           id="rect5548"
           width="202.13641"
           height="202.13641"
           x="57.908493"
           y="179.23772"
           rx="14.628293"
           ry="14.628293" />
        <rect
           transform="matrix(1,3.1622151e-4,-3.1622151e-4,1,0,0)"
           style="fill:url(#linearGradient3798);fill-opacity:1;fill-rule:nonzero;stroke:#e2e2e2;stroke-width:1.40602362;stroke-linecap:butt;stroke-linejoin:round;stroke-miterlimit:4;stroke-opacity:1;stroke-dasharray:none;stroke-dashoffset:0;marker:none;visibility:visible;display:inline;overflow:visible;enable-background:accumulate"
           id="rect5550"
           width="176.8694"
           height="131.65462"
           x="69.877151"
           y="233.76137"
           rx="14.628295"
           ry="16.839546" />
      </g>
    </g>
    <g
       id="g5610"
       transform="matrix(1.124955,0.2495407,-0.2089309,1.1045404,53.7777,640.33616)"
       inkscape:export-filename="/Users/millenomi/Developer/Multiverse/Mover/LabsPrivate/Contingencies/Custom Page Art/Backdrop/Slides.png"
       inkscape:export-xdpi="90"
       inkscape:export-ydpi="90">
      <rect
         transform="matrix(1.3298446,4.205256e-4,-4.205256e-4,1.3298446,-279.74358,-406.46408)"
         ry="11"
         rx="11"
         y="440.36218"
         x="254"
         height="152"
         width="152"
         id="rect5612"
         style="fill:#000000;fill-opacity:1;fill-rule:nonzero;stroke:none;stroke-width:5;marker:none;visibility:visible;display:inline;overflow:visible;filter:url(#filter5502);enable-background:accumulate" />
      <g
         id="g5614">
        <rect
           ry="14.628293"
           rx="14.628293"
           y="179.23772"
           x="57.908493"
           height="202.13641"
           width="202.13641"
           id="rect5616"
           style="fill:url(#linearGradient3800);fill-opacity:1;fill-rule:nonzero;stroke:none;stroke-width:5;marker:none;visibility:visible;display:inline;overflow:visible;enable-background:accumulate"
           transform="matrix(1,3.1622155e-4,-3.1622155e-4,1,0,0)"
           inkscape:export-filename="/Users/millenomi/Developer/Multiverse/Mover/LabsPrivate/Contingencies/Custom Page Art/Backdrop/rect2546.png"
           inkscape:export-xdpi="90"
           inkscape:export-ydpi="90" />
        <rect
           ry="16.839546"
           rx="14.628295"
           y="233.76137"
           x="69.877151"
           height="131.65462"
           width="176.8694"
           id="rect5618"
           style="fill:url(#linearGradient3802);fill-opacity:1;fill-rule:nonzero;stroke:#e2e2e2;stroke-width:1.40602362;stroke-linecap:butt;stroke-linejoin:round;stroke-miterlimit:4;stroke-opacity:1;stroke-dasharray:none;stroke-dashoffset:0;marker:none;visibility:visible;display:inline;overflow:visible;enable-background:accumulate"
           transform="matrix(1,3.1622151e-4,-3.1622151e-4,1,0,0)" />
      </g>
    </g>
    <g
       id="g5560"
       transform="matrix(0.7962903,0.2081864,-0.1786545,0.7828046,1208.5104,420.89231)"
       inkscape:export-filename="/Users/millenomi/Developer/Multiverse/Mover/LabsPrivate/Contingencies/Custom Page Art/Backdrop/Slides.png"
       inkscape:export-xdpi="90"
       inkscape:export-ydpi="90">
      <rect
         transform="matrix(1.3298446,4.205256e-4,-4.205256e-4,1.3298446,-279.74358,-406.46408)"
         ry="11"
         rx="11"
         y="440.36218"
         x="254"
         height="152"
         width="152"
         id="rect5562"
         style="fill:#000000;fill-opacity:1;fill-rule:nonzero;stroke:none;stroke-width:5;marker:none;visibility:visible;display:inline;overflow:visible;filter:url(#filter5502);enable-background:accumulate" />
      <g
         id="g5564">
        <rect
           ry="14.628293"
           rx="14.628293"
           y="179.23772"
           x="57.908493"
           height="202.13641"
           width="202.13641"
           id="rect5566"
           style="fill:url(#linearGradient3804);fill-opacity:1;fill-rule:nonzero;stroke:none;stroke-width:5;marker:none;visibility:visible;display:inline;overflow:visible;enable-background:accumulate"
           transform="matrix(1,3.1622155e-4,-3.1622155e-4,1,0,0)"
           inkscape:export-filename="/Users/millenomi/Developer/Multiverse/Mover/LabsPrivate/Contingencies/Custom Page Art/Backdrop/rect2546.png"
           inkscape:export-xdpi="90"
           inkscape:export-ydpi="90" />
        <rect
           ry="16.839546"
           rx="14.628295"
           y="233.76137"
           x="69.877151"
           height="131.65462"
           width="176.8694"
           id="rect5568"
           style="fill:url(#linearGradient3806);fill-opacity:1;fill-rule:nonzero;stroke:#e2e2e2;stroke-width:1.40602362;stroke-linecap:butt;stroke-linejoin:round;stroke-miterlimit:4;stroke-opacity:1;stroke-dasharray:none;stroke-dashoffset:0;marker:none;visibility:visible;display:inline;overflow:visible;enable-background:accumulate"
           transform="matrix(1,3.1622151e-4,-3.1622151e-4,1,0,0)" />
      </g>
    </g>
    <g
       inkscape:export-ydpi="90"
       inkscape:export-xdpi="90"
       inkscape:export-filename="/Users/millenomi/Developer/Multiverse/Mover/LabsPrivate/Contingencies/Custom Page Art/Backdrop/Slides.png"
       transform="matrix(0.67336618,-0.01141654,0.03171644,0.65623151,7.8514,845.27012)"
       id="g5506">
      <rect
         style="fill:#000000;fill-opacity:1;fill-rule:nonzero;stroke:none;stroke-width:5;marker:none;visibility:visible;display:inline;overflow:visible;filter:url(#filter5502);enable-background:accumulate"
         id="rect5508"
         width="152"
         height="152"
         x="254"
         y="440.36218"
         rx="11"
         ry="11"
         transform="matrix(1.3298446,4.205256e-4,-4.205256e-4,1.3298446,-279.74358,-406.46408)" />
      <g
         id="g5510">
        <rect
           inkscape:export-ydpi="90"
           inkscape:export-xdpi="90"
           inkscape:export-filename="/Users/millenomi/Developer/Multiverse/Mover/LabsPrivate/Contingencies/Custom Page Art/Backdrop/rect2546.png"
           transform="matrix(1,3.1622155e-4,-3.1622155e-4,1,0,0)"
           style="fill:url(#linearGradient3808);fill-opacity:1;fill-rule:nonzero;stroke:none;stroke-width:5;marker:none;visibility:visible;display:inline;overflow:visible;enable-background:accumulate"
           id="rect5512"
           width="202.13641"
           height="202.13641"
           x="57.908493"
           y="179.23772"
           rx="14.628293"
           ry="14.628293" />
        <rect
           transform="matrix(1,3.1622151e-4,-3.1622151e-4,1,0,0)"
           style="fill:url(#linearGradient3810);fill-opacity:1;fill-rule:nonzero;stroke:#e2e2e2;stroke-width:1.40602362;stroke-linecap:butt;stroke-linejoin:round;stroke-miterlimit:4;stroke-opacity:1;stroke-dasharray:none;stroke-dashoffset:0;marker:none;visibility:visible;display:inline;overflow:visible;enable-background:accumulate"
           id="rect5514"
           width="176.8694"
           height="131.65462"
           x="69.877151"
           y="233.76137"
           rx="14.628295"
           ry="16.839546" />
      </g>
    </g>
    <g
       inkscape:export-ydpi="90"
       inkscape:export-xdpi="90"
       inkscape:export-filename="/Users/millenomi/Developer/Multiverse/Mover/LabsPrivate/Contingencies/Custom Page Art/Backdrop/Slides.png"
       transform="matrix(0.7812129,-0.1622903,0.1821261,0.7567777,8.892,752.05342)"
       id="g5578">
      <rect
         style="fill:#000000;fill-opacity:1;fill-rule:nonzero;stroke:none;stroke-width:5;marker:none;visibility:visible;display:inline;overflow:visible;filter:url(#filter5502);enable-background:accumulate"
         id="rect5580"
         width="152"
         height="152"
         x="254"
         y="440.36218"
         rx="11"
         ry="11"
         transform="matrix(1.3298446,4.205256e-4,-4.205256e-4,1.3298446,-279.74358,-406.46408)" />
      <g
         id="g5582">
        <rect
           inkscape:export-ydpi="90"
           inkscape:export-xdpi="90"
           inkscape:export-filename="/Users/millenomi/Developer/Multiverse/Mover/LabsPrivate/Contingencies/Custom Page Art/Backdrop/rect2546.png"
           transform="matrix(1,3.1622155e-4,-3.1622155e-4,1,0,0)"
           style="fill:url(#linearGradient3812);fill-opacity:1;fill-rule:nonzero;stroke:none;stroke-width:5;marker:none;visibility:visible;display:inline;overflow:visible;enable-background:accumulate"
           id="rect5584"
           width="202.13641"
           height="202.13641"
           x="57.908493"
           y="179.23772"
           rx="14.628293"
           ry="14.628293" />
        <rect
           transform="matrix(1,3.1622151e-4,-3.1622151e-4,1,0,0)"
           style="fill:url(#linearGradient3814);fill-opacity:1;fill-rule:nonzero;stroke:#e2e2e2;stroke-width:1.40602362;stroke-linecap:butt;stroke-linejoin:round;stroke-miterlimit:4;stroke-opacity:1;stroke-dasharray:none;stroke-dashoffset:0;marker:none;visibility:visible;display:inline;overflow:visible;enable-background:accumulate"
           id="rect5586"
           width="176.8694"
           height="131.65462"
           x="69.877151"
           y="233.76137"
           rx="14.628295"
           ry="16.839546" />
      </g>
    </g>
    <g
       id="g2849"
       transform="matrix(1.0596608,-0.43092365,0.45257489,1.0200724,-116.44162,768.50499)"
       inkscape:export-filename="/Users/millenomi/Developer/Multiverse/Mover/LabsPrivate/Contingencies/Custom Page Art/Backdrop/Slides.png"
       inkscape:export-xdpi="90"
       inkscape:export-ydpi="90">
      <rect
         transform="matrix(1.3298446,4.205256e-4,-4.205256e-4,1.3298446,-279.74358,-406.46408)"
         ry="11"
         rx="11"
         y="440.36218"
         x="254"
         height="152"
         width="152"
         id="rect2543"
         style="fill:#000000;fill-opacity:1;fill-rule:nonzero;stroke:none;stroke-width:5;marker:none;visibility:visible;display:inline;overflow:visible;filter:url(#filter5502);enable-background:accumulate" />
      <g
         id="g2837">
        <rect
           ry="14.628293"
           rx="14.628293"
           y="179.23772"
           x="57.908493"
           height="202.13641"
           width="202.13641"
           id="rect2546"
           style="fill:url(#linearGradient3816);fill-opacity:1;fill-rule:nonzero;stroke:none;stroke-width:5;marker:none;visibility:visible;display:inline;overflow:visible;enable-background:accumulate"
           transform="matrix(1,3.1622155e-4,-3.1622155e-4,1,0,0)"
           inkscape:export-filename="/Users/millenomi/Developer/Multiverse/Mover/LabsPrivate/Contingencies/Custom Page Art/Backdrop/rect2546.png"
           inkscape:export-xdpi="90"
           inkscape:export-ydpi="90" />
        <rect
           ry="16.839546"
           rx="14.628295"
           y="233.76137"
           x="69.877151"
           height="131.65462"
           width="176.8694"
           id="rect2548"
           style="fill:url(#linearGradient3818);fill-opacity:1;fill-rule:nonzero;stroke:#e2e2e2;stroke-width:1.40602362;stroke-linecap:butt;stroke-linejoin:round;stroke-miterlimit:4;stroke-opacity:1;stroke-dasharray:none;stroke-dashoffset:0;marker:none;visibility:visible;display:inline;overflow:visible;enable-background:accumulate"
           transform="matrix(1,3.1622151e-4,-3.1622151e-4,1,0,0)" />
        <path
           transform="matrix(0.9999899,0.00450333,-0.00450333,0.9999899,0,0)"
           style="font-size:57.39090347px;font-style:normal;font-variant:normal;font-weight:bold;font-stretch:normal;text-align:center;line-height:100%;writing-mode:lr-tb;text-anchor:middle;fill:url(#linearGradient3820);fill-opacity:1;fill-rule:nonzero;stroke:none;stroke-width:10;marker:none;visibility:visible;display:inline;overflow:visible;enable-background:accumulate;font-family:Arial Rounded MT Bold;-inkscape-font-specification:'Arial Rounded MT Bold, Bold'"
           d="m 160.65382,296.9491 c 4.04769,-3.61594 7.01604,-6.23348 8.90505,-7.85264 1.94286,-1.61904 3.88577,-3.04924 5.82877,-4.29061 1.99681,-1.24125 4.20958,-2.40161 6.63831,-3.48107 3.88576,-1.72697 7.74461,-2.45557 11.57657,-2.18579 3.83178,0.21595 7.36681,1.32233 10.60511,3.31916 3.2381,1.94298 5.85564,4.45259 7.85264,7.52882 1.99678,3.07634 3.15714,6.3955 3.48107,9.95747 0.43164,4.2097 -0.3779,8.39238 -2.42865,12.54803 -1.997,4.10175 -4.96535,7.42091 -8.90506,9.95747 -3.88594,2.48264 -8.23052,3.48109 -13.03376,2.99534 -3.77799,-0.37777 -7.39398,-1.29526 -10.84797,-2.75247 -3.45416,-1.51114 -6.39553,-3.15722 -8.8241,-4.93826 -2.42872,-1.83495 -4.8034,-3.88581 -7.12405,-6.15258 -2.2668,-2.32068 -3.50811,-3.56199 -3.72393,-3.72394 -1.29534,1.29532 -2.83348,2.80648 -4.61444,4.53349 -1.72709,1.72707 -3.77795,3.50808 -6.15258,5.34303 -2.37473,1.78104 -5.28911,3.42712 -8.74315,4.93826 -3.45411,1.45721 -7.12407,2.3747 -11.00988,2.75247 -4.80336,0.48575 -9.17493,-0.5127 -13.11472,-2.99534 -3.88585,-2.53656 -6.8542,-5.85572 -8.90505,-9.95747 -1.9969,-4.15565 -2.77946,-8.33833 -2.3477,-12.54803 0.37779,-3.61594 1.56513,-6.96208 3.56202,-10.03843 1.99688,-3.07623 4.61443,-5.58583 7.85264,-7.52881 3.23818,-1.94286 6.77322,-3.02226 10.60511,-3.23821 3.83184,-0.26978 7.66371,0.45882 11.49562,2.18579 2.42861,1.07946 4.61439,2.23982 6.55736,3.48107 1.99684,1.24137 3.93976,2.67157 5.82876,4.29061 1.94287,1.61916 4.9382,4.2367 8.98601,7.85264 m -5.42399,5.42399 c -4.74941,-4.0477 -8.58128,-7.07002 -11.49561,-9.06696 -2.86046,-1.99684 -5.61292,-3.45403 -8.25742,-4.37158 -3.2922,-1.18728 -6.28754,-1.5111 -8.98601,-0.97146 -2.64455,0.48579 -4.91129,1.56519 -6.80022,3.2382 -1.88897,1.67313 -3.29219,3.61605 -4.20966,5.82877 -0.91751,2.15885 -1.37625,4.23669 -1.37624,6.23354 0.054,3.02236 1.0524,5.77483 2.99534,8.25741 1.9429,2.42868 4.39853,4.15572 7.36691,5.18112 2.96832,1.02546 5.90968,1.18737 8.8241,0.48573 4.37153,-1.0254 7.71767,-2.37465 10.03842,-4.04775 2.32067,-1.727 6.28746,-5.31601 11.90039,-10.76702 m 10.92893,0 c 3.6699,3.61603 6.50332,6.31453 8.50028,8.09551 1.99682,1.72707 3.96672,3.1033 5.90972,4.1287 1.94284,1.02546 4.42546,1.88898 7.44786,2.59056 2.96827,0.70164 5.93661,0.53973 8.90506,-0.48573 2.96825,-1.0254 5.42389,-2.75244 7.36691,-5.18112 1.94281,-2.48258 2.94126,-5.23505 2.99534,-8.25741 0.10783,-2.64449 -0.70172,-5.39696 -2.42866,-8.25742 -1.67317,-2.91433 -4.15579,-5.01915 -7.44786,-6.31449 -3.2383,-1.34919 -7.09715,-1.26824 -11.57657,0.24286 -2.69859,0.97152 -5.47804,2.48268 -8.33837,4.53349 -2.86049,1.99694 -6.63838,4.96529 -11.33371,8.90505"
           id="path2550" />
      </g>
    </g>
    <g
       id="g5051"
       transform="matrix(1.0833333,0,0,1.0833333,1195.7978,181.68981)">
      <path
         style="font-size:627.98571777px;font-style:normal;font-variant:normal;font-weight:normal;font-stretch:normal;text-indent:0;text-align:start;text-decoration:none;line-height:100%;letter-spacing:normal;word-spacing:normal;text-transform:none;direction:ltr;block-progression:tb;writing-mode:lr-tb;text-anchor:start;fill:#000000;fill-opacity:1;fill-rule:nonzero;stroke:none;stroke-width:0.82549268;marker:none;visibility:visible;display:inline;overflow:visible;filter:url(#filter5025);enable-background:accumulate;font-family:Miso;-inkscape-font-specification:Miso"
         d="m 206,402 0,96 96,0 0,-96 -96,0 z m 48,14.53125 c 1.90741,10e-5 3.52315,0.67955 4.84375,2 1.46723,1.32063 2.18745,3.00841 2.1875,5.0625 l 0,19.375 19.375,0 c 1.9074,7e-5 3.52313,0.64827 4.84375,1.96875 1.4672,1.3206 2.21867,3.00838 2.21875,5.0625 -9e-5,2.05425 -0.75156,3.74201 -2.21875,5.0625 -1.32062,1.3206 -2.93637,1.96881 -4.84375,1.96875 l -19.375,0 0,19.375 c -6e-5,2.05422 -0.72028,3.74199 -2.1875,5.0625 -1.32059,1.32056 -2.93634,2.00003 -4.84375,2 -2.05422,3e-5 -3.742,-0.67942 -5.0625,-2 -1.32059,-1.32052 -1.96879,-3.00828 -1.96875,-5.0625 l 0,-19.375 -19.375,0 c -2.05421,6e-5 -3.74197,-0.64815 -5.0625,-1.96875 -1.32055,-1.32049 -2.00001,-3.00826 -2,-5.0625 -1e-5,-2.05411 0.67944,-3.74189 2,-5.0625 1.32053,-1.32049 3.0083,-1.96868 5.0625,-1.96875 l 19.375,0 0,-19.375 c -4e-5,-2.05408 0.64816,-3.74186 1.96875,-5.0625 1.3205,-1.32046 3.00827,-1.9999 5.0625,-2 z"
         id="path4959" />
      <path
         id="rect4948"
         d="m 206,402 0,96 96,0 0,-96 -96,0 z m 48,14.53125 c 1.90741,10e-5 3.52315,0.67955 4.84375,2 1.46723,1.32063 2.18745,3.00841 2.1875,5.0625 l 0,19.375 19.375,0 c 1.9074,7e-5 3.52313,0.64827 4.84375,1.96875 1.4672,1.3206 2.21867,3.00838 2.21875,5.0625 -9e-5,2.05425 -0.75156,3.74201 -2.21875,5.0625 -1.32062,1.3206 -2.93637,1.96881 -4.84375,1.96875 l -19.375,0 0,19.375 c -6e-5,2.05422 -0.72028,3.74199 -2.1875,5.0625 -1.32059,1.32056 -2.93634,2.00003 -4.84375,2 -2.05422,3e-5 -3.742,-0.67942 -5.0625,-2 -1.32059,-1.32052 -1.96879,-3.00828 -1.96875,-5.0625 l 0,-19.375 -19.375,0 c -2.05421,6e-5 -3.74197,-0.64815 -5.0625,-1.96875 -1.32055,-1.32049 -2.00001,-3.00826 -2,-5.0625 -1e-5,-2.05411 0.67944,-3.74189 2,-5.0625 1.32053,-1.32049 3.0083,-1.96868 5.0625,-1.96875 l 19.375,0 0,-19.375 c -4e-5,-2.05408 0.64816,-3.74186 1.96875,-5.0625 1.3205,-1.32046 3.00827,-1.9999 5.0625,-2 z"
         style="font-size:627.98571777px;font-style:normal;font-variant:normal;font-weight:normal;font-stretch:normal;text-indent:0;text-align:start;text-decoration:none;line-height:100%;letter-spacing:normal;word-spacing:normal;text-transform:none;direction:ltr;block-progression:tb;writing-mode:lr-tb;text-anchor:start;fill:url(#linearGradient3822);fill-opacity:1;fill-rule:nonzero;stroke:none;stroke-width:0.82549268;marker:none;visibility:visible;display:inline;overflow:visible;enable-background:accumulate;font-family:Miso;-inkscape-font-specification:Miso" />
    </g>
    <g
       id="g5596"
       transform="matrix(0.7632051,-0.2327009,0.250231,0.7370664,874.65958,880.76706)"
       inkscape:export-filename="/Users/millenomi/Developer/Multiverse/Mover/LabsPrivate/Contingencies/Custom Page Art/Backdrop/Slides.png"
       inkscape:export-xdpi="90"
       inkscape:export-ydpi="90">
      <rect
         transform="matrix(1.3298446,4.205256e-4,-4.205256e-4,1.3298446,-279.74358,-406.46408)"
         ry="11"
         rx="11"
         y="440.36218"
         x="254"
         height="152"
         width="152"
         id="rect5598"
         style="fill:#000000;fill-opacity:1;fill-rule:nonzero;stroke:none;stroke-width:5;marker:none;visibility:visible;display:inline;overflow:visible;filter:url(#filter5502);enable-background:accumulate" />
      <g
         id="g5600">
        <rect
           ry="14.628293"
           rx="14.628293"
           y="179.23772"
           x="57.908493"
           height="202.13641"
           width="202.13641"
           id="rect5602"
           style="fill:url(#linearGradient3824);fill-opacity:1;fill-rule:nonzero;stroke:none;stroke-width:5;marker:none;visibility:visible;display:inline;overflow:visible;enable-background:accumulate"
           transform="matrix(1,3.1622155e-4,-3.1622155e-4,1,0,0)"
           inkscape:export-filename="/Users/millenomi/Developer/Multiverse/Mover/LabsPrivate/Contingencies/Custom Page Art/Backdrop/rect2546.png"
           inkscape:export-xdpi="90"
           inkscape:export-ydpi="90" />
        <rect
           ry="16.839546"
           rx="14.628295"
           y="233.76137"
           x="69.877151"
           height="131.65462"
           width="176.8694"
           id="rect5604"
           style="fill:url(#linearGradient3826);fill-opacity:1;fill-rule:nonzero;stroke:#e2e2e2;stroke-width:1.40602362;stroke-linecap:butt;stroke-linejoin:round;stroke-miterlimit:4;stroke-opacity:1;stroke-dasharray:none;stroke-dashoffset:0;marker:none;visibility:visible;display:inline;overflow:visible;enable-background:accumulate"
           transform="matrix(1,3.1622151e-4,-3.1622151e-4,1,0,0)" />
      </g>
    </g>
    <g
       inkscape:label="Livello 1"
       id="g4146"
       transform="matrix(0.484375,0,0,0.40625,-18.22321,1026.1347)"
       style="fill:#000000;filter:url(#filter4180);opacity:0.85">
      <rect
         style="fill:#000000;fill-opacity:1;fill-rule:nonzero;stroke:none;stroke-width:5;marker:none;visibility:visible;display:inline;overflow:visible;enable-background:accumulate"
         id="rect4148"
         width="320"
         height="480"
         x="351.42856"
         y="-366.20926" />
    </g>
  </g>
</svg>
